<?xml version="1.0"?>
<UnitTests>
  <UnitTestsData>
    <UnitTestData>
      <Description>Not Supported for now</Description>
      <Inputs>
        <Input type="mediaInfo" key="49111">
          <Id>49111</Id>
          <CreatedAt>2010-11-20 06:57:28</CreatedAt>
          <UpdatedAt>2010-11-20 06:57:28</UpdatedAt>
          <FlavorAssetId>0_k0p6lj51</FlavorAssetId>
          <FileSize>7352</FileSize>
          <ContainerFormat>avi</ContainerFormat>
          <ContainerId></ContainerId>
          <ContainerProfile></ContainerProfile>
          <ContainerDuration>75000</ContainerDuration>
          <ContainerBitRate>794</ContainerBitRate>
          <VideoFormat>mpeg-4 visual</VideoFormat>
          <VideoCodecId>fmp4</VideoCodecId>
          <VideoDuration>75000</VideoDuration>
          <VideoBitRate>721</VideoBitRate>
          <VideoBitRateMode></VideoBitRateMode>
          <VideoWidth>320</VideoWidth>
          <VideoHeight>240</VideoHeight>
          <VideoFrameRate>25</VideoFrameRate>
          <VideoDar>1.33333</VideoDar>
          <VideoRotation>0</VideoRotation>
          <AudioFormat>mpeg audio</AudioFormat>
          <AudioCodecId>50</AudioCodecId>
          <AudioDuration>75000</AudioDuration>
          <AudioBitRate>64</AudioBitRate>
          <AudioBitRateMode></AudioBitRateMode>
          <AudioChannels>2</AudioChannels>
          <AudioSamplingRate>22050</AudioSamplingRate>
          <AudioResolution></AudioResolution>
          <WritingLib></WritingLib>
          <CustomData></CustomData>
          <RawData>General
Complete name                    : /web/content/entry/data/0/23/0_fu5ekt7b_0_u0u9giph_1.avi
Format                           : AVI
Format/Info                      : Audio Video Interleave
File size                        : 7.18 MiB
Duration                         : 1mn 15s
Overall bit rate                 : 794 Kbps
Writing application              : Lavf52.31.0

Video
ID                               : 0
Format                           : MPEG-4 Visual
Format profile                   : Simple@L1
Format settings, BVOP            : No
Format settings, QPel            : No
Format settings, GMC             : No warppoints
Format settings, Matrix          : Default (H.263)
Codec ID                         : FMP4
Duration                         : 1mn 15s
Bit rate                         : 721 Kbps
Width                            : 320 pixels
Height                           : 240 pixels
Display aspect ratio             : 4:3
Frame rate                       : 25.000 fps
Resolution                       : 8 bits
Colorimetry                      : 4:2:0
Scan type                        : Progressive
Bits/(Pixel*Frame)               : 0.376
Stream size                      : 6.51 MiB (91%)
Writing library                  : Lavc52.20.0

Audio
ID                               : 1
Format                           : MPEG Audio
Format version                   : Version 2
Format profile                   : Layer 2
Codec ID                         : 50
Duration                         : 1mn 15s
Bit rate mode                    : Constant
Bit rate                         : 64.0 Kbps
Channel(s)                       : 2 channels
Sampling rate                    : 22.05 KHz
Stream size                      : 592 KiB (8%)
Alignment                        : Aligned on interleaves
Interleave, duration             : 52 ms (1.31 video frame)


</RawData>
          <MultiStreamInfo></MultiStreamInfo>
          <FlavorAssetVersion>1</FlavorAssetVersion>
          <ScanType>0</ScanType>
          <MultiStream></MultiStream>
        </Input>
        <Input type="flavorParamsOutput" key="59471">
          <Id>59471</Id>
          <FlavorParamsId>41</FlavorParamsId>
          <FlavorParamsVersion>0</FlavorParamsVersion>
          <PartnerId>431</PartnerId>
          <EntryId>0_dhcaydaf</EntryId>
          <FlavorAssetId>0_9bup0vxf</FlavorAssetId>
          <FlavorAssetVersion></FlavorAssetVersion>
          <Name>Basic - Small</Name>
          <Tags>web,mbr</Tags>
          <Description></Description>
          <ReadyBehavior>2</ReadyBehavior>
          <CreatedAt>2010-11-20 06:57:29</CreatedAt>
          <UpdatedAt>2010-11-20 06:57:29</UpdatedAt>
          <DeletedAt></DeletedAt>
          <IsDefault>0</IsDefault>
          <Format>flv</Format>
          <VideoCodec>vp6</VideoCodec>
          <VideoBitrate>400</VideoBitrate>
          <AudioCodec>mp3</AudioCodec>
          <AudioBitrate>96</AudioBitrate>
          <AudioChannels>2</AudioChannels>
          <AudioSampleRate>22050</AudioSampleRate>
          <AudioResolution></AudioResolution>
          <Width>320</Width>
          <Height>240</Height>
          <FrameRate>25</FrameRate>
          <GopSize>60</GopSize>
          <TwoPass></TwoPass>
          <ConversionEngines>1,2,99,3,4</ConversionEngines>
          <ConversionEnginesExtraParams></ConversionEnginesExtraParams>
          <CustomData></CustomData>
          <CommandLines>-i __inFileName__ -c VP6 -r 25 -b 400 -k 60 -w 320 -h 240 -a 96 -s 22050 -o __outFileName__ , -i __inFileName__ -vcodec flv -b 400k -s 320x240 -r 25 -g 60 -acodec libmp3lame -ab 96k -ar 22050 -ac 2 -f flv -y __outFileName__ , -i __inFileName__ -vcodec flv -b 400k -s 320x240 -r 25 -g 60 -acodec libmp3lame -ab 96k -ar 22050 -ac 2 -f flv -y __outFileName__ ,  __inFileName__ -of lavf -lavfopts format=flv -ofps 25 -ovc lavc -lavcopts vcodec=flv:vbitrate=400:mbd=2:mv0:trell:v4mv:cbp:last_pred=3:keyint=60 -vf harddup,scale=320:240 -oac mp3lame -lameopts abr:br=96 -srate 22050 -o __outFileName__ , encoding.com</CommandLines>
          <FileExt>flv</FileExt>
          <Deinterlice>0</Deinterlice>
          <Rotate>0</Rotate>
          <Operators></Operators>
          <EngineVersion>0</EngineVersion>
          <Type>1</Type>
        </Input>
        <Input type="mediaInfo" key="49131">
          <Id>49131</Id>
          <CreatedAt>2010-11-20 07:05:54</CreatedAt>
          <UpdatedAt>2010-11-20 07:05:54</UpdatedAt>
          <FlavorAssetId>0_9bup0vxf</FlavorAssetId>
          <FileSize>4864</FileSize>
          <ContainerFormat>flash video</ContainerFormat>
          <ContainerId></ContainerId>
          <ContainerProfile></ContainerProfile>
          <ContainerDuration>75000</ContainerDuration>
          <ContainerBitRate>525</ContainerBitRate>
          <VideoFormat>h.263</VideoFormat>
          <VideoCodecId></VideoCodecId>
          <VideoDuration>75000</VideoDuration>
          <VideoBitRate>391</VideoBitRate>
          <VideoBitRateMode></VideoBitRateMode>
          <VideoWidth>320</VideoWidth>
          <VideoHeight>240</VideoHeight>
          <VideoFrameRate>25</VideoFrameRate>
          <VideoDar>1.33333</VideoDar>
          <VideoRotation>0</VideoRotation>
          <AudioFormat>mpeg audio</AudioFormat>
          <AudioCodecId></AudioCodecId>
          <AudioDuration>75000</AudioDuration>
          <AudioBitRate>96</AudioBitRate>
          <AudioBitRateMode></AudioBitRateMode>
          <AudioChannels>2</AudioChannels>
          <AudioSamplingRate>22050</AudioSamplingRate>
          <AudioResolution></AudioResolution>
          <WritingLib></WritingLib>
          <CustomData></CustomData>
          <RawData>General
Complete name                    : /web/content/entry/data/0/23/0_dhcaydaf_0_9bup0vxf_2.flv
Format                           : Flash Video
File size                        : 4.75 MiB
Duration                         : 1mn 15s
Overall bit rate                 : 525 Kbps

Video
Format                           : H.263
Duration                         : 1mn 15s
Bit rate                         : 391 Kbps
Width                            : 320 pixels
Height                           : 240 pixels
Display aspect ratio             : 4:3
Frame rate                       : 25.000 fps
Bits/(Pixel*Frame)               : 0.203
Stream size                      : 3.53 MiB (74%)

Audio
Format                           : MPEG Audio
Format version                   : Version 2
Format profile                   : Layer 3
Format_Settings_Mode             : Joint stereo
Format_Settings_ModeExtension    : MS Stereo
Duration                         : 1mn 15s
Bit rate mode                    : Constant
Bit rate                         : 96.0 Kbps
Channel(s)                       : 2 channels
Sampling rate                    : 22.05 KHz
Stream size                      : 889 KiB (18%)
Writing library                  : LAME3.97


</RawData>
          <MultiStreamInfo></MultiStreamInfo>
          <FlavorAssetVersion>2</FlavorAssetVersion>
          <ScanType>0</ScanType>
          <MultiStream></MultiStream>
        </Input>
      </Inputs>
      <OutputReferences/>
    </UnitTestData>
  </UnitTestsData>
</UnitTests>
